<svg width="127" height="44" viewBox="0 0 127 44" fill="none" xmlns="http://www.w3.org/2000/svg">
<g clip-path="url(#clip0)">
<path d="M113.616 10.6673V19.5377C113.616 19.6614 113.616 19.7851 113.616 19.9046C113.591 20.1777 113.484 20.3099 113.215 20.3313C112.362 20.3313 111.508 20.3313 110.629 20.3313C110.496 20.3251 110.368 20.2768 110.264 20.1932C110.159 20.1096 110.084 19.9951 110.049 19.8662C109.733 19.1793 109.409 18.5009 109.089 17.8182C107.912 15.2952 106.733 12.7736 105.552 10.2534C105.437 10.0059 105.326 9.74994 105.198 9.50674C105.135 9.39253 105.054 9.28888 104.959 9.19954C104.797 9.0502 104.631 9.08007 104.558 9.28487C104.5 9.47414 104.474 9.67166 104.481 9.8694C104.481 12.1933 104.481 14.5186 104.481 16.8454C104.481 17.8011 104.481 18.7569 104.481 19.7083C104.481 20.2417 104.387 20.3355 103.871 20.3398H101.281C100.773 20.3398 100.692 20.2545 100.692 19.751V1.6262C100.692 1.12274 100.761 1.05447 101.243 1.0502C102.011 1.0502 102.783 1.0502 103.551 1.0502C103.703 1.0406 103.853 1.08145 103.979 1.16636C104.105 1.25127 104.199 1.37546 104.247 1.51954C105.777 4.87314 107.317 8.22532 108.867 11.5761C108.97 11.8159 109.094 12.0459 109.239 12.263C109.281 12.3132 109.333 12.3542 109.392 12.3835C109.45 12.4129 109.514 12.4299 109.58 12.4337C109.652 12.4337 109.751 12.2715 109.78 12.1649C109.817 12.0012 109.833 11.8334 109.827 11.6657C109.827 8.43154 109.827 5.19883 109.827 1.96754V1.63474C109.827 1.12274 109.908 1.05447 110.425 1.0502H113.01C113.561 1.0502 113.616 1.10567 113.616 1.66034V10.6673Z" fill="white"/>
<path d="M88.1768 10.6587V1.83527C88.1768 1.7286 88.1768 1.61767 88.1768 1.511C88.1768 1.16967 88.2877 1.08433 88.6034 1.05447C88.6802 1.0502 88.7571 1.0502 88.8338 1.05447H96.548C96.6418 1.05447 96.7314 1.05447 96.8253 1.05447C97.1325 1.05447 97.2093 1.1398 97.2093 1.447C97.2093 2.279 97.2093 3.10673 97.2093 3.93873C97.2093 4.24593 97.141 4.30567 96.8253 4.33127C96.7016 4.33766 96.5777 4.33766 96.4541 4.33127H92.7592C92.1106 4.33127 91.9485 4.5062 91.9485 5.159C91.9485 6.20433 91.9485 6.7206 91.9485 7.76593C91.9485 8.43153 92.1192 8.59793 92.8018 8.59793H95.8525C95.9592 8.59793 96.0658 8.59793 96.1725 8.59793C96.5565 8.61926 96.6205 8.679 96.6248 9.0758C96.6248 9.8438 96.6248 10.6118 96.6248 11.3841C96.6248 11.8107 96.548 11.8662 96.1384 11.8662C95.0589 11.8662 93.9794 11.8662 92.9042 11.8662C92.7806 11.8598 92.6567 11.8598 92.533 11.8662C92.455 11.865 92.3776 11.8797 92.3055 11.9095C92.2334 11.9393 92.1682 11.9835 92.1138 12.0395C92.0595 12.0954 92.0171 12.1619 91.9894 12.2348C91.9617 12.3078 91.9493 12.3856 91.9528 12.4635C91.9528 13.6027 91.9528 15.2753 91.9528 16.4145C91.9486 16.4922 91.9606 16.5699 91.9878 16.6428C92.015 16.7157 92.0569 16.7823 92.1109 16.8383C92.165 16.8943 92.2299 16.9386 92.3018 16.9685C92.3737 16.9983 92.4509 17.0131 92.5288 17.0118C92.6524 17.0182 92.7763 17.0182 92.9 17.0118H96.6888C97.1709 17.0118 97.2093 17.0587 97.2136 17.5451V19.7638C97.2136 20.2417 97.1666 20.2843 96.6845 20.2971H88.7058C88.2792 20.2971 88.1896 20.1819 88.1768 19.7809C88.1768 19.6742 88.1768 19.5633 88.1768 19.4566V10.6587Z" fill="white"/>
<path d="M20.1924 10.6893V1.77198C20.1924 1.65251 20.1924 1.52878 20.1924 1.40504C20.1924 1.17038 20.3161 1.07224 20.5294 1.05518H28.6148C29.1737 1.05518 29.2463 1.13198 29.2463 1.69944C29.2463 2.37642 29.2463 3.05482 29.2463 3.73464C29.2463 4.25091 29.1566 4.34051 28.6233 4.34051H24.6041C24.1774 4.36184 24.0622 4.45571 23.9812 4.86531C23.9451 5.02792 23.925 5.1937 23.9214 5.36024C23.9214 6.26904 23.9214 6.64024 23.9214 7.54904C23.9129 7.67263 23.9129 7.79665 23.9214 7.92024C24.011 8.47491 24.1433 8.59438 24.7065 8.59864C25.2697 8.60291 25.7518 8.59864 26.2766 8.59864C26.8782 8.59864 28.0942 8.59864 28.6958 8.59864C29.1566 8.59864 29.2292 8.68398 29.2292 9.14051C29.2292 9.87864 29.2292 10.621 29.2292 11.3592C29.2292 11.7858 29.1481 11.8669 28.7086 11.8712C27.6164 11.8712 25.9054 11.8712 24.8132 11.8712C24.691 11.8626 24.5684 11.8626 24.4462 11.8712C24.3304 11.8788 24.2205 11.925 24.1339 12.0023C24.0473 12.0796 23.9891 12.1836 23.9684 12.2978C23.9342 12.4781 23.9128 12.6606 23.9044 12.844C23.9044 13.7229 23.9044 15.1352 23.9044 16.0098C23.9023 16.0411 23.9023 16.0725 23.9044 16.1037C23.9598 16.9144 24.1433 17.021 24.8516 17.0125C26.1316 17.0125 27.3774 17.0125 28.6404 17.0125C29.1396 17.0125 29.2292 17.1021 29.2292 17.6056C29.2292 18.3309 29.2292 19.052 29.2292 19.7773C29.2292 20.1656 29.1225 20.2722 28.747 20.2978H20.8153C20.218 20.2978 20.1924 20.268 20.1924 19.6706V10.6893Z" fill="white"/>
<path d="M119.342 12.4338V5.32123C119.342 4.44229 119.236 4.33989 118.353 4.33563C117.802 4.33563 117.247 4.33563 116.693 4.33563C116.266 4.33563 116.206 4.25029 116.202 3.84496C116.202 3.10683 116.202 2.36869 116.202 1.62629C116.202 1.11429 116.262 1.05456 116.791 1.05029H123.579C124.287 1.05029 124.996 1.05029 125.713 1.05029C126.178 1.05029 126.246 1.12283 126.25 1.58789C126.25 2.32603 126.25 3.06416 126.25 3.80229C126.25 4.26309 126.182 4.32709 125.704 4.33136C125.132 4.33136 124.565 4.33136 123.997 4.33136C123.875 4.32063 123.752 4.32063 123.63 4.33136C123.498 4.33691 123.372 4.39475 123.282 4.49227C123.192 4.58978 123.144 4.71906 123.148 4.85189C123.148 4.98843 123.148 5.12923 123.148 5.27856V19.4396C123.148 20.3314 123.148 20.3314 122.252 20.3314H119.944C119.428 20.3314 119.359 20.2546 119.359 19.7426L119.342 12.4338Z" fill="white"/>
<path d="M36.8684 8.97825V16.0481C36.8684 16.1548 36.8684 16.2614 36.8684 16.3724C36.8684 16.846 37.0775 17.0252 37.5596 17.038C37.7474 17.038 37.9308 17.038 38.1143 17.038H41.7623C42.1634 17.038 42.2572 17.1233 42.2658 17.5244C42.2658 18.2924 42.2658 19.0646 42.2658 19.8326C42.2658 20.2252 42.1634 20.302 41.7623 20.3233H33.822C33.6984 20.3297 33.5745 20.3297 33.4508 20.3233C33.4002 20.3229 33.3502 20.312 33.3039 20.2916C33.2576 20.2711 33.216 20.2413 33.1817 20.2041C33.1473 20.167 33.1209 20.1232 33.1041 20.0754C33.0873 20.0277 33.0804 19.977 33.0839 19.9265C33.0839 19.8198 33.0839 19.7132 33.0839 19.6065V1.76758C33.0839 1.09345 33.118 1.05078 33.7751 1.05078H36.1346C36.8343 1.05078 36.8684 1.08491 36.8684 1.77185V8.97825Z" fill="white"/>
<path d="M49.264 8.97776V16.0476C49.264 16.1543 49.264 16.261 49.264 16.3719C49.2853 16.8455 49.4688 17.0247 49.9552 17.0375C50.1387 17.0375 50.3264 17.0375 50.5099 17.0375H54.1536C54.5803 17.0375 54.6528 17.1228 54.6613 17.5239C54.6613 18.2919 54.6613 19.0642 54.6613 19.8322C54.6613 20.2247 54.5589 20.3015 54.1536 20.3228H46.2133C46.0911 20.3292 45.9686 20.3292 45.8464 20.3228C45.7956 20.3223 45.7455 20.3115 45.699 20.2911C45.6525 20.2706 45.6106 20.241 45.5759 20.2039C45.5412 20.1668 45.5144 20.123 45.4971 20.0753C45.4798 20.0275 45.4723 19.9767 45.4752 19.926V1.76709C45.4752 1.08869 45.5136 1.05029 46.1707 1.05029H48.5259C49.2299 1.05029 49.264 1.08443 49.264 1.77136V8.97776Z" fill="white"/>
<path d="M8.29824 8.54305C8.49877 8.72225 8.66944 8.84598 8.8017 8.99105C9.69344 10.0022 10.5809 11.022 11.4684 12.0332C11.5586 12.159 11.668 12.2698 11.7926 12.3617C11.9384 12.4653 12.113 12.5206 12.2918 12.5196C12.3648 12.4884 12.43 12.4417 12.4831 12.3828C12.5361 12.3238 12.5757 12.254 12.599 12.1782C12.6405 12.0138 12.652 11.8433 12.6332 11.6748C12.6332 8.38091 12.6332 5.08278 12.6332 1.78891C12.6374 1.09345 12.6801 1.05078 13.559 1.05078H15.5772C16.1958 1.05078 16.294 1.13611 16.3068 1.61398C16.3068 1.89131 16.3068 2.16865 16.3068 2.44598V19.4913C16.3068 20.319 16.3068 20.3446 15.27 20.3446C14.3441 20.3446 14.5873 20.3446 13.6614 20.3446C13.4525 20.371 13.2403 20.3391 13.0483 20.2525C12.8564 20.1659 12.692 20.028 12.5734 19.854C11.4598 18.2284 10.3249 16.6113 9.1985 14.99C9.11317 14.8705 9.0321 14.7468 8.9425 14.6273C8.4945 14.03 8.1105 14.0257 7.6625 14.6273C7.43637 14.9302 7.23584 15.246 7.0097 15.5574C6.0241 16.974 5.0257 18.3862 4.06144 19.8241C3.93687 20.0138 3.76188 20.165 3.55612 20.2607C3.35035 20.3565 3.12197 20.3929 2.89664 20.366C1.91104 20.3446 1.9025 20.366 0.921169 20.366C0.200103 20.366 0.131836 20.3105 0.131836 19.7686V1.61825C0.144636 1.12331 0.225703 1.05505 0.852903 1.05505H3.23797C3.89077 1.05505 3.96757 1.12331 3.97184 1.65665C3.97184 4.97896 3.97184 8.30412 3.97184 11.6321C3.96404 11.8324 3.9798 12.0329 4.01877 12.2294C4.1041 12.5921 4.44544 12.6561 4.77397 12.4044C4.95648 12.2504 5.12496 12.0805 5.27744 11.8966C6.13077 10.9324 6.9841 9.96811 7.83744 9.00811C7.95264 8.85451 8.10624 8.72651 8.29824 8.54305Z" fill="white"/>
<path d="M8.0128 35.7644C7.83707 35.6317 7.66898 35.4893 7.50933 35.3377L4.84267 32.2913C4.75234 32.1668 4.6429 32.0573 4.5184 31.967C4.37308 31.863 4.19786 31.8091 4.0192 31.8134C3.94628 31.8446 3.88103 31.8913 3.82798 31.9502C3.77493 32.0092 3.73535 32.079 3.712 32.1548C3.67058 32.3192 3.65902 32.4897 3.67787 32.6582C3.67787 35.9521 3.67787 39.246 3.67787 42.5398C3.67787 43.2438 3.6352 43.278 2.75627 43.278C1.69387 43.278 1.80053 43.278 0.738133 43.278C0.1152 43.2566 0 43.1756 0 42.6934C0 42.4161 0 42.1388 0 41.8401C0 36.1512 0 30.4708 0 24.799C0 23.9713 0 23.9457 1.0368 23.9457C1.96267 23.9457 1.71947 23.9457 2.64533 23.9457C2.85384 23.9194 3.06556 23.9508 3.25741 24.0366C3.44927 24.1224 3.61389 24.2592 3.73333 24.4321C4.84693 26.062 5.98187 27.679 7.10827 29.3004C7.1936 29.4198 7.27467 29.5436 7.36427 29.663C7.81227 30.2561 8.19627 30.2646 8.64427 29.663C8.8704 29.3558 9.07093 29.0444 9.29707 28.7329C10.2827 27.3121 11.2811 25.8998 12.2453 24.4662C12.3685 24.2751 12.5432 24.1227 12.7494 24.0268C12.9555 23.9309 13.1846 23.8954 13.4101 23.9244C14.3957 23.9244 14.4043 23.9244 15.3856 23.9244C16.1067 23.9244 16.1749 23.9756 16.1749 24.5217V42.6892C16.1749 43.1884 16.0939 43.2566 15.4667 43.2566C14.3445 43.2566 14.1867 43.2566 13.0816 43.2566C12.4288 43.2566 12.352 43.1884 12.3477 42.6593V32.6668C12.3558 32.4665 12.34 32.266 12.3008 32.0694C12.2155 31.7068 11.8741 31.6428 11.5456 31.8945C11.3617 32.0485 11.1918 32.2184 11.0379 32.4022C10.1845 33.3622 9.3312 34.3308 8.47787 35.2908C8.3584 35.4529 8.20053 35.5852 8.0128 35.7644Z" fill="white"/>
<path d="M31.4869 43.1921C31.0602 43.1921 30.6336 43.1921 30.2069 43.1921C29.537 43.1921 29.4858 43.1494 29.3536 42.5052C29.2213 41.8609 29.1061 41.2806 28.9738 40.6662C28.8416 40.0518 28.6794 39.9836 28.1205 39.9793L24.4938 39.9409H24.1738C23.713 39.9665 23.5381 40.0988 23.4485 40.551C23.3205 41.2081 23.2053 41.8694 23.0944 42.5308C22.9962 43.1281 22.9322 43.1921 22.3306 43.1921C21.4773 43.1921 20.624 43.1921 19.7706 43.1921C19.6783 43.1986 19.5856 43.1986 19.4933 43.1921C19.169 43.1494 19.105 43.0598 19.1861 42.727C19.371 42.0188 19.5573 41.3077 19.745 40.5937C21.1417 35.3087 22.5411 30.011 23.9434 24.7004C23.969 24.598 24.0074 24.4956 24.033 24.3932C24.0538 24.2876 24.1137 24.1937 24.2007 24.1304C24.2878 24.0671 24.3955 24.0391 24.5024 24.0519H28.0821C28.4234 24.0519 28.5088 24.1286 28.5941 24.5212C28.961 25.9093 29.3265 27.2959 29.6906 28.6812L33.1594 41.7841C33.2362 42.0785 33.3173 42.3772 33.3898 42.6716C33.4837 43.0641 33.3898 43.158 33.0016 43.1878C32.865 43.1878 32.7285 43.1878 32.5749 43.1878L31.4869 43.1921ZM26.2773 28.4252C25.9445 28.5745 25.9232 28.903 25.8506 29.1889C25.424 31.0065 25.0528 32.8199 24.656 34.6374C24.5578 35.0641 24.4426 35.5292 24.3744 35.9772C24.3061 36.4252 24.4085 36.6172 24.9034 36.6812C25.2053 36.7125 25.5087 36.7268 25.8122 36.7238C26.3498 36.7238 26.8832 36.7238 27.4165 36.7238C27.9498 36.7238 28.1034 36.4934 28.0352 35.9942C28.0352 35.9345 28.0352 35.8748 28.001 35.815C27.7749 34.6161 27.5445 33.4214 27.3056 32.2396C27.0965 31.1772 26.8789 30.1062 26.6656 29.0566C26.6186 28.8006 26.5845 28.5233 26.2773 28.4252Z" fill="white"/>
<path d="M66.5801 33.5713V24.9398C66.5801 24.8332 66.5801 24.7265 66.5801 24.6198C66.5801 24.1121 66.6398 24.0566 67.1305 24.0566H75.0921C75.5913 24.0566 75.651 24.1121 75.6553 24.607C75.6553 25.3096 75.6553 26.0207 75.6553 26.7404C75.6553 27.2182 75.5742 27.2865 75.0835 27.2865H71.5038C71.3518 27.2779 71.1993 27.2779 71.0473 27.2865C70.5438 27.3377 70.3902 27.5084 70.3646 28.0204C70.3646 28.0801 70.3646 28.1398 70.3646 28.2038C70.3646 29.0913 70.3646 29.4454 70.3646 30.3372C70.3646 31.0625 70.5395 31.2374 71.2478 31.2374C72.3187 31.2374 73.3811 31.2374 74.4606 31.2374C74.9769 31.2374 75.0409 31.3057 75.0451 31.822C75.0451 32.526 75.0451 33.23 75.0451 33.934C75.0451 34.4161 74.9641 34.4886 74.4777 34.4886H71.2521C71.1441 34.4822 71.0358 34.4822 70.9278 34.4886C70.7965 34.4899 70.6701 34.5392 70.5727 34.6273C70.4752 34.7153 70.4133 34.836 70.3987 34.9665C70.3689 35.0988 70.3561 35.9564 70.3561 36.0929C70.3561 37.134 70.3561 37.9916 70.3561 39.0326C70.3515 39.1761 70.3659 39.3196 70.3987 39.4593C70.4841 39.7878 70.595 39.886 70.9406 39.9116C71.1241 39.9116 71.3075 39.9116 71.491 39.9116H74.8403C75.6211 39.9116 75.651 39.9457 75.651 40.7009C75.651 41.3281 75.651 41.9809 75.651 42.5868C75.651 43.0732 75.5443 43.1884 75.0622 43.1884C72.4482 43.1884 69.8313 43.1884 67.2115 43.1884C66.6953 43.1884 66.5971 43.086 66.5971 42.5654C66.5971 40.927 66.5971 39.2929 66.5971 37.6545L66.5801 33.5713Z" fill="white"/>
<path d="M81.707 35.3887V28.1354C81.707 27.4741 81.532 27.2821 80.8536 27.2821C80.3032 27.2821 79.7528 27.2821 79.1982 27.2821C79.0915 27.2821 78.9848 27.2821 78.8782 27.2821C78.8358 27.2836 78.7935 27.2759 78.7543 27.2596C78.7152 27.2432 78.68 27.2186 78.6512 27.1874C78.6224 27.1562 78.6007 27.1192 78.5876 27.0788C78.5745 27.0384 78.5703 26.9957 78.5752 26.9535C78.5752 26.1002 78.5752 25.2469 78.5752 24.3935C78.5709 24.351 78.5764 24.308 78.5911 24.2679C78.6059 24.2278 78.6296 24.1916 78.6604 24.162C78.6912 24.1323 78.7284 24.1102 78.7691 24.097C78.8098 24.0839 78.8529 24.0803 78.8952 24.0863H88.444C88.7854 24.0863 88.8707 24.1546 88.8707 24.4874C88.8707 25.2853 88.8707 26.0789 88.8707 26.8767C88.8707 27.2309 88.8024 27.3034 88.444 27.3034C87.804 27.3034 87.164 27.3034 86.5155 27.3034C85.419 27.3034 85.4872 27.6021 85.4915 28.3274C85.4915 33.0122 85.4915 37.6956 85.4915 42.3775C85.4915 43.1967 85.4616 43.2309 84.6382 43.2309C83.9043 43.2309 83.1704 43.2309 82.4366 43.2309C82.294 43.2317 82.1514 43.2232 82.0099 43.2053C81.9677 43.2031 81.9263 43.1925 81.8882 43.1741C81.8501 43.1556 81.8162 43.1297 81.7883 43.0978C81.7604 43.066 81.7393 43.0289 81.726 42.9887C81.7128 42.9485 81.7078 42.9061 81.7112 42.8639C81.7112 42.7402 81.7112 42.6165 81.7112 42.497L81.707 35.3887Z" fill="white"/>
<path d="M84.1983 3.14536C82.0393 0.431757 76.9449 1.05042 73.5316 1.05042C73.4237 1.04191 73.3153 1.04191 73.2073 1.05042C73.1649 1.05091 73.1231 1.06004 73.0843 1.07727C73.0456 1.09449 73.0108 1.11945 72.982 1.15061C72.9533 1.18177 72.9312 1.21847 72.9171 1.25847C72.903 1.29847 72.8972 1.34092 72.9001 1.38322C72.9001 1.50696 72.9001 1.63069 72.9001 1.75442V19.7342C72.9001 20.259 72.9599 20.3187 73.4804 20.323H75.9465C76.6719 20.323 76.6889 20.323 76.6889 19.5678V14.2216C76.6889 14.051 76.6889 13.8803 76.6889 13.7139C76.7231 13.172 76.8681 13.0312 77.3929 13.0312C78.9332 13.0312 80.5375 13.108 82.018 12.6046C83.874 11.956 85.1156 10.1299 85.474 8.24402C85.6344 7.35228 85.6036 6.43665 85.3837 5.55769C85.1638 4.67874 84.7597 3.85649 84.1983 3.14536V3.14536ZM81.6383 7.86856C81.4108 8.51274 80.9555 9.05147 80.3583 9.38322C79.942 9.59704 79.4822 9.71236 79.0143 9.72029C78.6345 9.74162 78.2505 9.72029 77.8793 9.72029C77.6768 9.72029 77.4825 9.63982 77.3393 9.4966C77.1961 9.35337 77.1156 9.15911 77.1156 8.95656V4.95869C77.1156 4.19069 78.0329 4.15656 78.6004 4.16509C79.3276 4.17031 80.037 4.38997 80.6399 4.79656C80.9293 4.99262 81.1766 5.24464 81.3671 5.53774C81.5576 5.83085 81.6875 6.15912 81.7492 6.50322C81.8279 6.95983 81.7927 7.4288 81.6468 7.86856H81.6383Z" fill="white"/>
<path d="M48.8361 42.5136C47.7666 40.7671 46.6914 39.0249 45.6105 37.287C45.1839 36.6214 44.7913 35.96 44.3945 35.2902C44.1599 34.8635 44.2452 34.6459 44.6591 34.4368L45.1199 34.2278C46.1476 33.7662 46.9821 32.9604 47.4793 31.9494C47.9517 31.0006 48.1257 29.9312 47.9785 28.8816C47.7524 27.0171 46.9119 25.5579 45.1796 24.7003C44.2952 24.2719 43.325 24.0502 42.3423 24.0518C40.4777 24.0518 38.6089 24.0518 36.7444 24.0518C35.9551 24.0518 35.9551 24.0518 35.9551 24.8454V32.5595C35.9551 35.8619 35.9551 39.1671 35.9551 42.4752C35.9551 43.1067 36.0404 43.192 36.6676 43.192C37.4441 43.192 38.2249 43.192 39.0057 43.192C39.6756 43.192 39.7183 43.1494 39.7183 42.5008C39.7183 40.3675 39.7183 38.2342 39.7183 36.0752C39.7164 35.8468 39.7495 35.6195 39.8164 35.4011C39.8889 35.1792 40.0809 35.1408 40.2431 35.3072C40.3885 35.4637 40.5145 35.637 40.6185 35.8235C41.8929 38.0848 43.1629 40.3504 44.4287 42.6203C44.513 42.8079 44.6536 42.9645 44.831 43.0685C45.0083 43.1725 45.2137 43.2186 45.4185 43.2006C46.4425 43.2006 47.4665 43.2006 48.4905 43.2006C48.6825 43.2006 48.8703 43.1494 49.1263 43.1152C49.0111 42.8592 48.9385 42.68 48.8361 42.5136ZM42.0991 32.184C41.9056 32.237 41.7065 32.2671 41.506 32.2736C41.1305 32.2736 40.7465 32.2736 40.3711 32.2736C40.2708 32.2736 40.1715 32.2539 40.0788 32.2155C39.9861 32.1771 39.902 32.1209 39.831 32.0499C39.7601 31.979 39.7039 31.8948 39.6655 31.8022C39.6271 31.7095 39.6073 31.6102 39.6073 31.5099V27.495C39.6073 27.2924 39.6878 27.0982 39.831 26.9549C39.9743 26.8117 40.1685 26.7312 40.3711 26.7312C41.3055 26.7312 42.2825 26.7312 43.0889 27.2816C43.4945 27.562 43.8149 27.9488 44.0148 28.3995C44.1676 28.7718 44.2385 29.1726 44.2226 29.5748C44.2067 29.9769 44.1044 30.3709 43.9226 30.73C43.7408 31.089 43.4839 31.4047 43.1692 31.6556C42.8546 31.9066 42.4896 32.0868 42.0991 32.184V32.184Z" fill="white"/>
<path d="M64.282 8.84171C61.9822 7.91158 61.2953 7.39958 61.2953 6.06411C61.2953 4.78411 61.9396 4.00758 63.3049 4.00758C63.7265 3.97681 64.1465 4.08542 64.5004 4.31669C64.8542 4.54796 65.1223 4.88908 65.2633 5.28758C65.293 5.37589 65.3508 5.45206 65.4278 5.50445C65.5048 5.55684 65.5969 5.58257 65.69 5.57771H68.5486C68.6149 5.57983 68.6807 5.56648 68.7409 5.53872C68.8011 5.51096 68.854 5.46956 68.8954 5.4178C68.9368 5.36604 68.9656 5.30535 68.9795 5.24053C68.9933 5.17571 68.9919 5.10855 68.9753 5.04438C68.442 2.88118 66.8889 1.05078 63.339 1.05078C59.8958 1.05078 57.6004 3.08598 57.6004 6.40971C57.6004 9.22998 58.9188 10.7062 62.554 12.1526C64.9646 13.1425 65.8137 13.9532 65.8137 15.5276C65.8137 16.8076 65.2377 17.8017 63.4628 17.8017C62.9654 17.8275 62.4726 17.6959 62.0543 17.4255C61.6361 17.1551 61.3138 16.7597 61.1332 16.2956C61.098 16.2113 61.0387 16.1392 60.9629 16.0884C60.887 16.0376 60.7978 16.0102 60.7065 16.0097H57.8137C57.7441 16.0094 57.6754 16.0247 57.6125 16.0545C57.5496 16.0844 57.4943 16.1279 57.4505 16.1819C57.4067 16.236 57.3755 16.2991 57.3594 16.3668C57.3432 16.4345 57.3425 16.5049 57.3572 16.5729C57.9801 19.0177 59.8276 20.7798 63.3305 20.7798C67.6782 20.7798 69.5598 18.1814 69.5598 15.135C69.5598 12.0886 68.1476 10.3649 64.282 8.84171Z" fill="white"/>
<path d="M63.7225 42.3138C62.7028 40.7053 61.7172 39.2802 60.8212 37.565C60.4286 36.8141 59.746 35.7602 58.9779 34.2754C58.8839 34.1283 58.83 33.959 58.8218 33.7846C58.8135 33.6102 58.8512 33.4366 58.931 33.2813C59.0846 32.9826 59.2297 32.6797 59.3961 32.3853C60.9705 29.6119 62.05 27.6237 63.4068 24.9015C63.5646 24.5858 63.8676 24.0738 63.2361 24.0482C62.3486 24.0482 61.4612 24.0482 60.5737 24.0482C60.3792 24.0211 60.1814 24.0619 60.0135 24.1637C59.8456 24.2656 59.7179 24.4222 59.6521 24.6071C58.547 26.8727 57.4078 29.1255 56.2771 31.3783C56.2085 31.5299 56.1226 31.6731 56.0212 31.805C55.9486 31.8903 55.795 31.9927 55.7225 31.9629C55.6629 31.9361 55.6099 31.8967 55.5671 31.8473C55.5244 31.7979 55.4929 31.7398 55.475 31.677C55.4359 31.4517 55.4202 31.2229 55.4281 30.9943C55.4281 28.9406 55.4281 26.8898 55.4281 24.8418C55.4281 24.0823 55.5177 24.0439 54.6643 24.0525C53.9433 24.0525 53.2265 24.0525 52.5054 24.0525C51.6947 24.0525 51.6862 23.9629 51.6862 24.8845V42.3309C51.6862 42.4845 51.6862 42.6381 51.6862 42.7874C51.6801 42.8372 51.6847 42.8876 51.6998 42.9355C51.7149 42.9833 51.7401 43.0273 51.7737 43.0645C51.8073 43.1017 51.8485 43.1313 51.8945 43.1512C51.9405 43.1711 51.9902 43.1809 52.0403 43.1799C52.1327 43.1863 52.2253 43.1863 52.3177 43.1799C53.1411 43.1799 53.9689 43.1799 54.7966 43.1799C55.3641 43.1799 55.4238 43.1117 55.4238 42.5485C55.4238 40.7081 55.4238 38.8706 55.4238 37.0359C55.4159 36.7918 55.4316 36.5474 55.4707 36.3063C55.4858 36.2429 55.5151 36.1838 55.5565 36.1335C55.598 36.0832 55.6504 36.0431 55.7097 36.0162C55.7822 35.9863 55.9529 36.0717 56.0126 36.1527C56.1804 36.3894 56.3315 36.6375 56.4649 36.8951C57.4974 38.8237 58.53 40.7351 59.5454 42.6807C59.6176 42.843 59.7386 42.9787 59.8915 43.069C60.0445 43.1592 60.2218 43.1995 60.3988 43.1842C61.363 43.1842 62.323 43.1842 63.2873 43.1842C63.842 43.1757 63.9998 42.7533 63.7225 42.3138Z" fill="white"/>
</g>
<defs>
<clipPath id="clip0">
<rect width="126.242" height="42.6667" fill="white" transform="translate(0 0.666504)"/>
</clipPath>
</defs>
</svg>
